<?xml version="1.0" standalone="no"?>
<!DOCTYPE svg PUBLIC "-//W3C//DTD SVG 20010904//EN"
 "http://www.w3.org/TR/2001/REC-SVG-20010904/DTD/svg10.dtd">
<svg version="1.0" xmlns="http://www.w3.org/2000/svg"
 width="2177.000000pt" height="954.000000pt" viewBox="0 0 2177.000000 954.000000"
 preserveAspectRatio="xMidYMid meet">

<g transform="translate(0.000000,954.000000) scale(0.100000,-0.100000)"
fill="#000000" stroke="none">
<path d="M660 7385 l0 -495 945 0 945 0 0 225 c0 193 -2 225 -15 225 -8 0 -15
4 -15 9 0 5 -18 11 -40 15 -22 3 -40 11 -40 16 0 5 -7 7 -15 4 -10 -4 -15 0
-16 12 0 18 -1 17 -9 -1 -8 -18 -9 -18 -9 -2 -1 11 -7 17 -18 15 -13 -2 -17 3
-15 17 2 15 0 17 -6 6 -9 -13 -49 -8 -62 8 -17 20 -78 41 -122 41 -39 0 -49 3
-45 14 6 16 -34 30 -62 21 -10 -3 -26 4 -38 15 -12 10 -33 22 -47 26 -14 3
-26 9 -26 13 0 3 -10 7 -23 8 -52 5 -81 18 -72 34 4 5 1 9 -4 9 -6 0 -11 -3
-11 -7 0 -5 -14 -8 -30 -9 -17 -1 -30 3 -30 8 0 5 -4 7 -9 4 -10 -7 -71 16
-71 26 0 4 -9 8 -20 8 -11 0 -20 5 -20 11 0 6 -6 9 -14 6 -8 -3 -17 1 -20 10
-4 9 -9 13 -12 10 -4 -3 -13 0 -21 8 -8 8 -25 15 -39 15 -13 0 -24 4 -24 10 0
5 -7 7 -15 4 -8 -4 -15 -1 -15 6 0 7 -8 9 -20 5 -12 -4 -20 -2 -20 5 0 7 -8
10 -20 7 -26 -7 -90 11 -90 25 0 5 -8 7 -17 4 -9 -4 -20 -1 -24 6 -7 10 -12
11 -29 1 -26 -17 -33 -16 -27 1 4 10 0 12 -14 9 -12 -3 -19 0 -19 8 -1 10 -4
8 -11 -3 -11 -20 -54 -24 -91 -9 -13 5 -42 15 -65 22 -24 7 -43 17 -43 22 0 5
-7 4 -16 -4 -12 -10 -17 -10 -23 0 -6 8 -20 10 -45 6 -21 -4 -36 -3 -36 3 0 5
-11 7 -24 5 -14 -3 -39 2 -57 11 -18 9 -35 14 -37 11 -3 -3 0 -5 6 -5 19 0 14
-17 -7 -23 -12 -3 -22 1 -25 10 -3 8 -10 11 -16 8 -6 -3 -17 1 -26 9 -8 9 -22
16 -30 16 -12 0 -14 -73 -14 -495z m1160 205 c0 -5 -4 -10 -10 -10 -5 0 -10 5
-10 10 0 6 5 10 10 10 6 0 10 -4 10 -10z m610 -241 c0 -14 -17 -10 -23 5 -4
10 -1 13 9 9 7 -3 14 -9 14 -14z"/>
<path d="M660 4625 l0 -2260 945 -945 945 -945 0 2260 0 2260 -945 945 -945
945 0 -2260z"/>
<path d="M10220 2765 l0 -1905 225 0 225 0 0 1905 0 1905 -225 0 -225 0 0
-1905z"/>
<path d="M11450 2765 l0 -1905 225 0 225 0 0 1905 0 1905 -225 0 -225 0 0
-1905z"/>
<path d="M12680 4390 l0 -280 225 0 225 0 0 280 0 280 -225 0 -225 0 0 -280z"/>
<path d="M5980 3880 l0 -390 -230 0 -230 0 0 -180 0 -180 228 -2 227 -3 5
-920 c7 -1014 4 -971 70 -1111 61 -127 161 -205 316 -244 128 -33 427 -26 557
12 l37 11 0 168 0 168 -52 -7 c-89 -12 -250 -8 -302 7 -65 19 -117 71 -147
146 l-24 60 -3 858 -3 857 291 0 290 0 0 180 0 180 -290 0 -290 0 0 390 0 390
-225 0 -225 0 0 -390z"/>
<path d="M4130 3548 c-303 -20 -522 -148 -673 -396 l-52 -85 -6 184 c-4 101
-7 196 -8 212 l-1 27 -220 0 -220 0 0 -1315 0 -1315 224 0 225 0 4 793 c4 685
6 803 21 877 25 131 43 187 93 289 79 165 214 276 390 322 98 25 280 27 366 4
198 -52 321 -193 368 -417 18 -88 19 -145 19 -980 l0 -888 225 0 225 0 0 923
c0 557 -4 950 -10 992 -58 402 -268 661 -610 750 -86 22 -230 32 -360 23z"/>
<path d="M8380 3549 c-378 -23 -686 -211 -881 -539 -216 -364 -267 -977 -118
-1425 176 -529 585 -808 1149 -782 491 22 842 268 1006 705 13 34 24 65 24 67
0 3 -101 5 -225 5 l-225 0 -29 -58 c-79 -156 -193 -257 -348 -308 -82 -27 -99
-29 -243 -29 -132 0 -165 3 -225 22 -179 57 -329 197 -417 390 -52 116 -98
330 -98 460 l0 43 930 0 930 0 0 183 c0 253 -32 435 -107 617 -104 252 -266
432 -488 541 -179 88 -385 123 -635 108z m248 -365 c243 -49 410 -213 487
-478 24 -83 49 -271 39 -288 -3 -4 -315 -8 -695 -8 l-689 0 0 31 c0 52 39 226
70 311 91 249 279 407 525 441 71 10 192 6 263 -9z"/>
<path d="M12680 2175 l0 -1315 225 0 225 0 0 1315 0 1315 -225 0 -225 0 0
-1315z"/>
</g>
</svg>
